<svg width="403" height="253" viewBox="0 0 403 253" fill="none" xmlns="http://www.w3.org/2000/svg">
<rect x="0.5" y="197.5" width="192" height="54.7803" rx="14.5" fill="white" stroke="#DDDDDD"/>
<rect x="65.2631" y="212.619" width="105.425" height="23.9855" fill="#EEEEEE"/>
<g clip-path="url(#clip0)">
<path d="M33.554 208.168C33.4022 207.856 33.1448 207.587 32.8048 207.418C31.988 207.016 30.9979 207.351 30.5952 208.168L25.8791 217.72L15.3328 219.263C14.9896 219.311 14.6546 219.473 14.3906 219.744C13.7536 220.397 13.7685 221.442 14.4203 222.077L22.049 229.508L20.2487 240.006C20.1893 240.348 20.2388 240.717 20.4153 241.052C20.8394 241.859 21.8378 242.169 22.6447 241.745L32.0738 236.787L41.5045 241.745C41.8114 241.909 42.1778 241.975 42.5507 241.912C43.4484 241.759 44.0524 240.905 43.8989 240.006L42.0986 229.508L49.7273 222.077C49.9765 221.836 50.1547 221.509 50.2091 221.133C50.3412 220.232 49.7174 219.394 48.8148 219.262L38.2702 217.72L33.554 208.168ZM32.0738 212.626L35.6926 219.96C35.9418 220.463 36.4121 220.783 36.9335 220.862L45.0293 222.046L39.1728 227.75C38.7702 228.143 38.6101 228.689 38.6976 229.211L40.0788 237.268L32.8411 233.461C32.3444 233.201 31.7735 233.217 31.3048 233.461L24.0672 237.268L25.4484 229.211C25.5441 228.656 25.351 228.12 24.9731 227.75L19.1167 222.046L27.214 220.861C27.7685 220.78 28.219 220.432 28.455 219.96L32.0738 212.626Z" fill="#AAAAAA"/>
</g>
<rect x="210.5" y="197.5" width="192" height="54.7803" rx="14.5" fill="white" stroke="#DDDDDD"/>
<rect x="275.263" y="212.619" width="105.425" height="23.9855" fill="#EEEEEE"/>
<g clip-path="url(#clip1)">
<path d="M243.554 208.168C243.402 207.856 243.145 207.587 242.805 207.418C241.988 207.016 240.998 207.351 240.595 208.168L235.879 217.72L225.333 219.263C224.99 219.311 224.655 219.473 224.391 219.744C223.754 220.397 223.768 221.442 224.42 222.077L232.049 229.508L230.249 240.006C230.189 240.348 230.239 240.717 230.415 241.052C230.839 241.859 231.838 242.169 232.645 241.745L242.074 236.787L251.505 241.745C251.811 241.909 252.178 241.975 252.551 241.912C253.448 241.759 254.052 240.905 253.899 240.006L252.099 229.508L259.727 222.077C259.976 221.836 260.155 221.509 260.209 221.133C260.341 220.232 259.717 219.394 258.815 219.262L248.27 217.72L243.554 208.168ZM242.074 212.626L245.693 219.96C245.942 220.463 246.412 220.783 246.934 220.862L255.029 222.046L249.173 227.75C248.77 228.143 248.61 228.689 248.698 229.211L250.079 237.268L242.841 233.461C242.344 233.201 241.773 233.217 241.305 233.461L234.067 237.268L235.448 229.211C235.544 228.656 235.351 228.12 234.973 227.75L229.117 222.046L237.214 220.861C237.769 220.78 238.219 220.432 238.455 219.96L242.074 212.626Z" fill="#F09A22"/>
</g>
<g clip-path="url(#clip2)">
<path d="M93.2227 174.379C96.2743 180.019 102.751 182.439 102.751 182.439C102.751 182.439 104.28 175.717 101.228 170.078C98.1767 164.439 91.7001 162.018 91.7001 162.018C91.7001 162.018 90.1711 168.74 93.2227 174.379Z" fill="#2F2E41"/>
<path d="M95.3201 172.524C100.83 175.827 102.951 182.388 102.951 182.388C102.951 182.388 96.1407 183.593 90.6313 180.29C85.1219 176.987 83 170.427 83 170.427C83 170.427 89.8107 169.222 95.3201 172.524Z" fill="#6C63FF"/>
<path d="M218.842 8.78516H184.467V9.27448H218.842V8.78516Z" fill="#F2F2F2"/>
<path d="M209.512 9.15234H209.021V13.6786H209.512V9.15234Z" fill="#F2F2F2"/>
<path d="M194.534 9.15234H194.043V13.6786H194.534V9.15234Z" fill="#F2F2F2"/>
<path d="M236.275 32.2729H201.9V32.7623H236.275V32.2729Z" fill="#F2F2F2"/>
<path d="M211.722 27.8691H211.231V32.3954H211.722V27.8691Z" fill="#F2F2F2"/>
<path d="M226.699 27.8691H226.208V32.3954H226.699V27.8691Z" fill="#F2F2F2"/>
<path d="M281.945 43.2827H247.57V43.772H281.945V43.2827Z" fill="#F2F2F2"/>
<path d="M257.391 38.8784H256.9V43.4047H257.391V38.8784Z" fill="#F2F2F2"/>
<path d="M272.369 38.8784H271.878V43.4047H272.369V38.8784Z" fill="#F2F2F2"/>
<path d="M278.507 156.806H244.132V157.295H278.507V156.806Z" fill="#F2F2F2"/>
<path d="M253.954 152.402H253.463V156.928H253.954V152.402Z" fill="#F2F2F2"/>
<path d="M268.932 152.402H268.44V156.928H268.932V152.402Z" fill="#F2F2F2"/>
<path d="M219.824 78.269H185.449V78.7584H219.824V78.269Z" fill="#F2F2F2"/>
<path d="M195.271 73.8652H194.78V78.3915H195.271V73.8652Z" fill="#F2F2F2"/>
<path d="M210.249 73.8652H209.757V78.3915H210.249V73.8652Z" fill="#F2F2F2"/>
<path d="M230.628 137.232H196.253V137.722H230.628V137.232Z" fill="#F2F2F2"/>
<path d="M206.074 132.829H205.583V137.355H206.074V132.829Z" fill="#F2F2F2"/>
<path d="M221.052 132.829H220.561V137.355H221.052V132.829Z" fill="#F2F2F2"/>
<path d="M285.628 119.372H251.253V119.861H285.628V119.372Z" fill="#F2F2F2"/>
<path d="M261.074 114.968H260.583V119.494H261.074V114.968Z" fill="#F2F2F2"/>
<path d="M276.052 114.968H275.561V119.494H276.052V114.968Z" fill="#F2F2F2"/>
<path d="M171.899 171.798H113.759V171.381H171.48V151.167H118.647L116.08 145.839L116.457 145.659L118.91 150.75H171.899V171.798Z" fill="#2F2E41"/>
<path d="M121.497 182.009C123.923 182.009 125.889 180.049 125.889 177.633C125.889 175.216 123.923 173.256 121.497 173.256C119.072 173.256 117.105 175.216 117.105 177.633C117.105 180.049 119.072 182.009 121.497 182.009Z" fill="#3F3D56"/>
<path d="M164.788 182.009C167.214 182.009 169.18 180.049 169.18 177.633C169.18 175.216 167.214 173.256 164.788 173.256C162.363 173.256 160.396 175.216 160.396 177.633C160.396 180.049 162.363 182.009 164.788 182.009Z" fill="#3F3D56"/>
<path d="M215.817 87.3996C217.318 87.3996 218.536 86.1867 218.536 84.6905C218.536 83.1943 217.318 81.9814 215.817 81.9814C214.315 81.9814 213.098 83.1943 213.098 84.6905C213.098 86.1867 214.315 87.3996 215.817 87.3996Z" fill="#3F3D56"/>
<path d="M178.117 144.29H112.768L98.6279 98.2358H192.679L192.593 98.5068L178.117 144.29ZM113.077 143.873H177.81L192.109 98.6526H99.1932L113.077 143.873Z" fill="#2F2E41"/>
<path d="M173.016 141.893H115.617L103.198 101.049H185.806L185.731 101.289L173.016 141.893Z" fill="#F2F2F2"/>
<path d="M193.851 94.1214L193.446 94.0145L196.206 83.6484H212.262V84.0653H196.528L193.851 94.1214Z" fill="#2F2E41"/>
<path d="M187.979 112.198H103.197V112.615H187.979V112.198Z" fill="#2F2E41"/>
<path d="M183.124 127.553H107.912V127.97H183.124V127.553Z" fill="#2F2E41"/>
<path d="M145.861 98.4443H145.443V144.082H145.861V98.4443Z" fill="#2F2E41"/>
<path d="M164.588 98.4311L161.586 144.067L162.003 144.095L165.006 98.4583L164.588 98.4311Z" fill="#2F2E41"/>
<path d="M126.725 98.4304L126.308 98.4575L129.293 144.095L129.71 144.068L126.725 98.4304Z" fill="#2F2E41"/>
<path d="M303 182.273H83V182.762H303V182.273Z" fill="#2F2E41"/>
<path d="M229.195 15.1384C229.195 15.1384 232.784 25.3179 230.575 26.884C228.366 28.45 238.03 41.2396 238.03 41.2396L249.626 38.1075L243.276 27.406C243.276 27.406 242.448 16.7045 242.448 15.1384C242.448 13.5723 229.195 15.1384 229.195 15.1384Z" fill="#A0616A"/>
<path opacity="0.1" d="M229.195 15.1384C229.195 15.1384 232.784 25.3179 230.575 26.884C228.366 28.45 238.03 41.2396 238.03 41.2396L249.626 38.1075L243.276 27.406C243.276 27.406 242.448 16.7045 242.448 15.1384C242.448 13.5723 229.195 15.1384 229.195 15.1384Z" fill="black"/>
<path d="M223.17 87.7001C223.17 87.7001 222.122 100.751 223.17 107.537C224.218 114.323 225.789 133.116 225.789 133.116C225.789 133.116 225.789 168.614 231.552 169.136C237.315 169.658 241.506 170.18 242.03 168.092C242.554 166.004 239.41 164.96 240.982 163.916C242.554 162.872 243.078 159.217 240.982 155.041C238.887 150.865 240.982 108.581 240.982 108.581L250.936 135.204C250.936 135.204 251.984 157.129 253.032 160.261C254.079 163.394 251.984 169.136 255.651 169.658C259.318 170.18 263.509 167.048 265.605 166.004C267.7 164.96 262.462 164.96 263.509 164.438C264.557 163.916 267.7 162.349 266.653 161.827C265.605 161.305 264.557 136.248 264.557 136.248C264.557 136.248 261.676 82.7409 258.008 80.6528C254.341 78.5647 251.984 82.1613 251.984 82.1613L223.17 87.7001Z" fill="#2F2E41"/>
<path d="M232.6 167.047V171.224C232.6 171.224 227.885 182.576 232.6 182.576C237.315 182.576 240.982 183.752 240.982 182.186V168.091L232.6 167.047Z" fill="#2F2E41"/>
<path d="M263.509 167.041V171.217C263.509 171.217 268.224 182.569 263.509 182.569C258.794 182.569 255.127 183.745 255.127 182.179V168.085L263.509 167.041Z" fill="#2F2E41"/>
<path d="M236.529 22.7079C241.737 22.7079 245.959 18.501 245.959 13.3115C245.959 8.12196 241.737 3.91504 236.529 3.91504C231.321 3.91504 227.099 8.12196 227.099 13.3115C227.099 18.501 231.321 22.7079 236.529 22.7079Z" fill="#A0616A"/>
<path d="M233.648 30.7993C233.648 30.7993 236.267 38.6297 240.458 37.0636L244.649 35.4975L251.984 85.6118C251.984 85.6118 246.221 93.9642 237.839 88.744C229.457 83.5237 233.648 30.7993 233.648 30.7993Z" fill="#6C63FF"/>
<path d="M240.982 29.2332L243.34 24.2739C243.34 24.2739 257.223 30.7992 259.318 32.8873C261.414 34.9754 261.414 38.1076 261.414 38.1076L257.746 51.1582C257.746 51.1582 258.794 79.8695 258.794 80.9135C258.794 81.9576 262.461 87.6998 259.842 85.6117C257.223 83.5236 256.699 81.4355 254.603 84.5677C252.508 87.6998 247.793 91.354 247.793 91.354L240.982 29.2332Z" fill="#3F3D56"/>
<path d="M259.318 66.8193L257.746 81.436C257.746 81.436 248.316 89.7884 250.412 90.3104C252.508 90.8324 253.555 88.7443 253.555 88.7443C253.555 88.7443 257.223 92.3985 259.318 90.3104C261.414 88.2223 266.653 68.3854 266.653 68.3854L259.318 66.8193Z" fill="#A0616A"/>
<path d="M236.73 0.0317745C234.639 -0.0426932 232.402 -0.0795297 230.64 1.04301C229.829 1.60637 229.117 2.3002 228.535 3.0961C226.818 5.25853 225.335 7.97937 225.972 10.6624L226.713 10.3745C226.713 11.0907 226.553 11.7979 226.245 12.445C226.35 12.1428 226.699 12.6313 226.605 12.937L225.79 15.604C227.131 15.1141 228.799 16.106 229.003 17.5147C229.096 14.417 229.419 10.8649 231.941 9.05104C233.213 8.13633 234.822 7.85709 236.371 7.60913C237.799 7.38037 239.297 7.16223 240.665 7.63087C242.034 8.0995 243.199 9.49397 242.889 10.9022C243.52 10.6857 244.225 11.1238 244.537 11.7117C244.849 12.2996 244.865 12.9931 244.875 13.658C245.547 14.1316 246.313 13.1911 246.587 12.4173C247.23 10.6008 247.802 8.66726 247.455 6.77221C247.109 4.87715 245.559 3.06614 243.626 3.05971C243.86 2.8029 243.986 2.46521 243.975 2.11807L242.382 1.98392C242.786 1.92685 243.158 1.73142 243.434 1.4311C242.794 2.13253 237.764 0.068623 236.73 0.0317745Z" fill="#2F2E41"/>
<path d="M236.267 27.6671C236.267 27.6671 232.002 23.5027 230.467 23.7578C228.933 24.0129 226.837 27.6671 226.837 27.6671C226.837 27.6671 214.264 31.8433 214.788 36.0195C215.312 40.1957 221.074 60.5546 221.074 60.5546C221.074 60.5546 225.789 85.0897 221.598 87.6998C217.407 90.3099 241.506 97.0962 242.03 93.9641C242.554 90.832 243.602 59.5105 242.03 54.8123C240.458 50.1141 236.267 27.6671 236.267 27.6671Z" fill="#3F3D56"/>
<path d="M254.603 36.0195H261.081C261.081 36.0195 265.605 55.8564 266.129 57.9445C266.653 60.0326 267.7 69.9511 267.176 69.9511C266.653 69.9511 256.175 67.863 256.175 69.429L254.603 36.0195Z" fill="#3F3D56"/>
<path d="M254.384 85.142H229.585C227.165 74.049 226.963 63.3313 229.585 53.0913H254.384C250.382 63.1471 250.132 73.7914 254.384 85.142Z" fill="#F2F2F2"/>
<path d="M219.503 71.5172L226.837 74.6494C226.837 74.6494 240.982 76.7375 240.982 70.9952C240.982 65.2529 226.837 68.3851 226.837 68.3851L222.122 66.8828L219.503 71.5172Z" fill="#A0616A"/>
<path d="M221.074 32.8872L214.788 34.4533L210.073 62.1205C210.073 62.1205 208.501 69.4289 211.12 69.9509C213.74 70.4729 221.074 74.6491 221.074 74.6491C221.074 74.6491 222.122 66.8188 224.218 66.8188L218.979 62.6426L222.122 44.3717L221.074 32.8872Z" fill="#3F3D56"/>
<path d="M132.168 86.3433H97.7932V86.8326H132.168V86.3433Z" fill="#F2F2F2"/>
<path d="M107.615 81.939H107.124V86.4652H107.615V81.939Z" fill="#F2F2F2"/>
<path d="M122.592 81.939H122.101V86.4652H122.592V81.939Z" fill="#F2F2F2"/>
<path d="M144.199 13.9233H109.824V14.4127H144.199V13.9233Z" fill="#F2F2F2"/>
<path d="M134.869 14.29H134.378V18.8163H134.869V14.29Z" fill="#F2F2F2"/>
<path d="M119.891 14.29H119.4V18.8163H119.891V14.29Z" fill="#F2F2F2"/>
<path d="M178.82 62.1216H144.445V62.6109H178.82V62.1216Z" fill="#F2F2F2"/>
<path d="M169.49 62.4888H168.999V67.015H169.49V62.4888Z" fill="#F2F2F2"/>
<path d="M154.512 62.4888H154.021V67.015H154.512V62.4888Z" fill="#F2F2F2"/>
<path d="M120.382 61.877H86.0074V62.3663H120.382V61.877Z" fill="#F2F2F2"/>
<path d="M111.052 62.2437H110.561V66.7699H111.052V62.2437Z" fill="#F2F2F2"/>
<path d="M96.0744 62.2437H95.5834V66.7699H96.0744V62.2437Z" fill="#F2F2F2"/>
<path d="M161.632 37.4106H127.257V37.9H161.632V37.4106Z" fill="#F2F2F2"/>
<path d="M137.079 33.0068H136.588V37.5331H137.079V33.0068Z" fill="#F2F2F2"/>
<path d="M152.057 33.0068H151.565V37.5331H152.057V33.0068Z" fill="#F2F2F2"/>
</g>
<defs>
<clipPath id="clip0">
<rect width="36.4483" height="34.7916" fill="white" transform="translate(13.8496 207.176)"/>
</clipPath>
<clipPath id="clip1">
<rect width="36.4483" height="34.7916" fill="white" transform="translate(223.85 207.176)"/>
</clipPath>
<clipPath id="clip2">
<rect width="220" height="183" fill="white" transform="translate(83)"/>
</clipPath>
</defs>
</svg>
